<svg xmlns="http://www.w3.org/2000/svg" viewBox="0 0 128 128" width="128" height="128">
  <rect x="0" y="0" width="128" height="128" rx="22" fill="#1a73e8" />
  
  <path d="M 0,-1 Q 0,0 1,0 Q 0,0 0,1 Q 0,0 -1,0 Q 0,0 0,-1 Z" transform="translate(22, 22) scale(6)" fill="#ffffff" opacity="0.9" />
  <path d="M 0,-1 Q 0,0 1,0 Q 0,0 0,1 Q 0,0 -1,0 Q 0,0 0,-1 Z" transform="translate(102, 28) scale(4)" fill="#ffffff" opacity="0.7" />
  <path d="M 0,-1 Q 0,0 1,0 Q 0,0 0,1 Q 0,0 -1,0 Q 0,0 0,-1 Z" transform="translate(25, 95) scale(5)" fill="#ffffff" opacity="0.8" />
  <path d="M 0,-1 Q 0,0 1,0 Q 0,0 0,1 Q 0,0 -1,0 Q 0,0 0,-1 Z" transform="translate(45, 15) scale(3)" fill="#ffffff" opacity="0.6" />
  <path d="M 0,-1 Q 0,0 1,0 Q 0,0 0,1 Q 0,0 -1,0 Q 0,0 0,-1 Z" transform="translate(65, 108) scale(4.5)" fill="#ffffff" opacity="0.9" />
  <path d="M 0,-1 Q 0,0 1,0 Q 0,0 0,1 Q 0,0 -1,0 Q 0,0 0,-1 Z" transform="translate(112, 65) scale(5)" fill="#ffffff" opacity="1.0" />
  
  <g stroke-width="10" stroke-linecap="round" stroke-linejoin="round" fill="none">
    <path d="M 64,22 L 31,79" stroke="#fbbc04" />
    <path d="M 31,79 L 97,79" stroke="#ea4335" />
    <path d="M 97,79 L 64,22" stroke="#34a853" />
  </g>
  
  <g transform="translate(64, 72) rotate(0)"
     stroke="#fbbc04" stroke-width="5"
     fill="none" stroke-linecap="round">
    <path d="M 44,0 L 44,-12 A 12,12 0 0,0 20,-12
             L 20,14 A 18,18 0 0,0 56,14 L 56,-18
             A 26,26 0 0,0 4,-18 L 4,0" />
  </g>
</svg>
