<svg xmlns="http://www.w3.org/2000/svg" viewBox="0 0 128 128" width="128" height="128">
  <polygon points="14,60 44,35 114,35 84,60" fill="#2255A4" stroke="#ffffff" stroke-width="2" stroke-linejoin="round" />
  <polygon points="14,60 84,60 84,105 14,105" fill="#2255A4" stroke="#ffffff" stroke-width="2" stroke-linejoin="round" />
  <polygon points="84,60 114,35 114,80 84,105" fill="#2255A4" stroke="#ffffff" stroke-width="2" stroke-linejoin="round" />
  
  <g transform="translate(64, 47.5) scale(0.8)" stroke="#FBBC04" stroke-width="5" fill="none" stroke-linecap="round">
    <path d="M 14,2 L 14,-10 A 12,12 0 0,0 -10,-10 L -10,16 A 18,18 0 0,0 26,16 L 26,-16 A 26,26 0 0,0 -26,-16 L -26,2" />
  </g>
  
  <path d="M 0,-1 Q 0,0 1,0 Q 0,0 0,1 Q 0,0 -1,0 Q 0,0 0,-1 Z" transform="translate(25, 20) scale(4)" fill="#FBBC04" />
  <path d="M 0,-1 Q 0,0 1,0 Q 0,0 0,1 Q 0,0 -1,0 Q 0,0 0,-1 Z" transform="translate(105, 15) scale(4)" fill="#FBBC04" />
  <path d="M 0,-1 Q 0,0 1,0 Q 0,0 0,1 Q 0,0 -1,0 Q 0,0 0,-1 Z" transform="translate(115, 90) scale(4)" fill="#FBBC04" />
</svg>
