<?xml version="1.0" encoding="utf-8"?>
<!DOCTYPE svg PUBLIC "-//W3C//DTD SVG 1.0//EN" "http://www.w3.org/TR/2001/REC-SVG-20010904/DTD/svg10.dtd">
<svg version="1.0" xmlns="http://www.w3.org/2000/svg" width="1000px" height="1000px" viewBox="0 0 1000 1000" preserveAspectRatio="xMidYMid meet">
 <g fill="#2e3770">
  <path d="M119 999.5 c-0.8 -0.2 -5.5 -0.9 -10.5 -1.5 -40.1 -5.4 -78.9 -34.5 -95.7 -71.9 -8.6 -19.3 -12.1 -35.1 -12.1 -55.6 0 -10.4 1 -19.9 5.1 -48 5 -34.2 10.1 -70.8 16.2 -115 1.6 -12.1 4.1 -30.1 5.5 -40 8 -56.9 10.6 -75.3 12 -86.5 0.9 -6.9 3.2 -23.5 5.1 -37 3.6 -25.5 3.9 -27.9 10.4 -76 4.7 -35.1 6.2 -45.8 9.4 -69 1.4 -9.6 3.2 -23.1 4.1 -30 0.9 -6.9 2.7 -19.9 4 -29 1.3 -9.1 3.1 -21.7 4 -28 0.8 -6.3 2.4 -18 3.5 -26 1.1 -8 3.4 -24.4 5 -36.5 1.7 -12.1 4.1 -30.1 5.5 -40 1.3 -9.9 4.3 -31.5 6.5 -48 7.1 -51.8 8.6 -59.5 14.7 -74.9 7.6 -19.3 18.6 -35.6 32.9 -48.9 20.8 -19.3 41.6 -30 69.4 -35.4 9.1 -1.7 21.3 -1.8 286.5 -1.8 263.1 0 277.4 0.1 285.9 1.8 27.1 5.5 49.6 17.2 69 35.7 21.6 20.8 35.8 47.6 40.7 76.8 2.5 15.4 7.7 53.2 28.3 205.7 4.7 34.7 9.7 70.7 11 80 1.4 9.4 3.2 22.2 4.1 28.5 0.8 6.3 2.2 16.5 3 22.5 0.8 6.1 2.6 19.1 4 29 1.3 9.9 4.9 35.8 7.9 57.5 3 21.7 7.5 54.8 10.1 73.5 2.6 18.7 6.6 48 9 65 4.8 33.8 8.9 63.2 13 93.5 1.5 10.7 4.6 33.5 7 50.5 5.7 39.9 6.5 48.1 5.5 59 -1.9 20.7 -4.9 31.5 -14 50 -7.1 14.4 -12.7 22 -25.1 34 -21.4 20.7 -46.7 32.4 -76.3 35.4 -7.8 0.8 -120.5 1.1 -387 1 -206.9 -0.1 -376.8 -0.3 -377.6 -0.4z m775.5 -36.2 c9.2 -3 21.9 -9.1 29.7 -14.4 20.8 -14.1 36.3 -38.3 40.9 -63.9 1.7 -10.1 1.2 -22.7 -2.1 -45 -1.7 -11.3 -4.4 -30.6 -6 -43 -1.7 -12.4 -6.4 -46.6 -10.5 -76 -4.1 -29.4 -8.2 -58.4 -9 -64.5 -0.8 -6 -3.7 -27.2 -6.5 -47 -2.8 -19.8 -7.3 -52.2 -10 -72 -7.1 -52.4 -11.5 -83.9 -16.5 -119.5 -2.4 -17.3 -5.4 -38.7 -6.5 -47.5 -2.1 -16 -3.9 -28.9 -10.5 -76.5 -3.4 -25 -9.6 -69.9 -15.5 -113.1 -8.8 -64.2 -11.1 -75.3 -19 -90.9 -7 -13.9 -19.1 -28.4 -31.4 -37.7 -8.7 -6.5 -24.4 -14.1 -35.6 -17.1 l-9.5 -2.7 -275.8 -0.2 -275.9 -0.3 -9.7 2.4 c-31.8 7.8 -56.7 27.7 -71.4 57.1 -5.2 10.4 -8.4 21.8 -10.7 37.7 -6.2 43.7 -13.1 93.4 -22 158.3 -1 7.7 -3.5 25.7 -5.5 40 -6.3 45.9 -7.4 53.7 -10 73 -1.4 10.5 -3.2 23.5 -4 29 -0.8 5.5 -2.2 15.4 -3 22 -0.9 6.6 -3.4 24.2 -5.5 39 -2.1 14.9 -4.6 32.9 -5.5 40 -1 7.2 -2.8 20.7 -4.1 30 -1.4 9.4 -3.6 25.3 -4.9 35.5 -1.4 10.2 -3.9 28 -5.5 39.5 -5.4 38.1 -9.9 70.8 -11.9 86 -1.1 8.3 -2.9 21.8 -4 30 -1.1 8.3 -2.7 19.5 -3.6 25 -3.3 21.9 -11.4 81.5 -12 89 -0.8 8.9 1.1 22.7 4.5 33 4.4 13.2 14.7 30.2 23.8 39.2 13.5 13.2 35.6 24.8 52.1 27.2 3.1 0.5 178.9 0.8 390.6 0.7 l385 -0.1 7 -2.2z"/>
 </g>
 <g fill="#285196">
  <path d="M122 969.2 c-16.4 -1.2 -26.2 -3.7 -39 -10.2 -20.6 -10.3 -34.1 -23.8 -44.7 -44.9 -7.4 -14.7 -10.9 -31.5 -9.9 -48.1 0.5 -9 7.3 -60.9 12.1 -92.5 0.9 -5.5 2.5 -16.7 3.6 -25 1.1 -8.2 2.9 -21.7 4 -30 2 -15.2 6.5 -47.9 11.9 -86 1.6 -11.5 4.1 -29.3 5.5 -39.5 1.3 -10.2 3.5 -26.1 4.9 -35.5 1.3 -9.3 3.1 -22.8 4.1 -30 0.9 -7.1 3.4 -25.1 5.5 -40 2.1 -14.8 4.6 -32.4 5.5 -39 0.8 -6.6 2.2 -16.5 3 -22 0.8 -5.5 2.6 -18.5 4 -29 2.6 -19.3 3.7 -27.1 10 -73 2 -14.3 4.5 -32.4 5.5 -40.2 9.7 -70.2 15.7 -113.9 22 -158.1 2.3 -15.9 5.5 -27.3 10.7 -37.7 14.7 -29.4 39.6 -49.3 71.4 -57.1 l9.7 -2.4 278.9 0.3 278.8 0.2 9.5 2.7 c34.4 9.4 61.3 35.1 73.2 69.8 2.9 8.5 6.4 29.2 12.8 75.9 5.9 43.2 12.1 88.1 15.5 113.1 6.6 47.6 8.4 60.5 10.5 76.5 1.1 8.8 4.1 30.2 6.5 47.5 5 35.6 9.4 67.1 16.5 119.5 2.7 19.8 7.2 52.2 10 72 2.8 19.8 5.7 41 6.5 47 0.8 6.1 4.9 35.1 9 64.5 4.1 29.4 8.8 63.6 10.5 76 1.6 12.4 4.4 32 6.1 43.5 5.5 37.7 3.9 55.4 -6.9 77 -10.5 21.1 -25 35.3 -46.5 45.6 -13.4 6.4 -20.3 8 -36.2 8.6 -14.5 0.4 -748.3 1 -754.5 0.5z m159.4 -50.7 c14 -3.7 24.5 -15 27.5 -29.7 1 -4.8 1 -6.8 -0.4 -12 -4.2 -16.6 -19.3 -28.7 -35.7 -28.8 -3.6 0 -3.8 -0.2 -3.8 -3.3 0 -9.2 -7.1 -23.8 -15.7 -32.3 -6.7 -6.6 -19.1 -13 -28.2 -14.5 -17.6 -3.1 -40.6 8.5 -50.1 25.4 -2.9 5.1 -3.5 5.7 -6.5 5.7 -1.8 0 -5.2 -0.9 -7.6 -2 -13.4 -6 -30.9 3.6 -35.9 19.8 -1.1 3.5 -2 7.8 -2 9.6 0 3 -0.3 3.2 -5.2 4.4 -10.7 2.5 -20.4 11.7 -23.5 22.1 -4.2 14.6 6.2 31.1 22.7 36.2 1.4 0.4 37.6 0.8 80.5 0.8 66.7 0.1 78.9 -0.1 83.9 -1.4z m471 0.3 c5.7 -1.7 14.1 -10.2 15.6 -15.8 2.3 -8.4 -1.6 -17.2 -10.1 -23 -7.2 -4.9 -12.8 -5.1 -19.9 -0.8 -6.7 4 -12 12 -12 18 0 8 7.5 18.3 15.5 21.2 5 1.8 5.9 1.9 10.9 0.4z m75.6 -2.6 c6.1 -3.7 11 -11.9 11 -18.2 0 -9 -9.4 -19.9 -18.7 -21.6 -10 -1.9 -24.3 10.8 -24.3 21.6 0 4.6 3.2 10.8 7.8 15.4 7.4 7.1 15.6 8.1 24.2 2.8z m69.5 0.3 c5.2 -3 10 -9.1 11.5 -14.4 2.6 -9.5 -5.9 -21.6 -17.8 -25.2 -3.6 -1 -4.8 -0.9 -8.8 0.6 -6.5 2.5 -12.7 8.9 -14.8 15.3 -1.6 4.8 -1.6 5.6 -0.2 10 2.2 6.5 6.6 11.5 12.8 14.7 6.4 3.2 10.7 2.9 17.3 -1z m-262.5 -56.9 c25.9 -3.9 47.3 -15 66.5 -34.3 15.1 -15.1 25.1 -32.6 30.4 -53.3 5.7 -22.2 5.9 -36.9 1.1 -57.8 -5.3 -22.5 -10.6 -33.5 -36 -74.2 -5.7 -9.1 -16.8 -27.1 -24.8 -40 -8 -12.9 -22.9 -37 -33.2 -53.5 -29.6 -47.5 -59.3 -95.5 -71.2 -115 -6.1 -9.9 -12.4 -19.5 -14.2 -21.3 -2.9 -3.2 -8.4 -6.2 -11.1 -6.2 -2.6 0 -10.2 6.1 -12.4 10.1 -4.6 8.2 -3.7 10.3 32.2 67.4 6.6 10.5 16 25.8 21 34 4.9 8.3 14 23.1 20.2 33 6.2 9.9 21 34 33 53.5 12 19.5 25.5 41.4 30 48.5 10.4 16.6 11.9 19.3 19.8 35 10.7 21.5 13.1 31.2 13.1 53 0.1 27.6 -6.6 45.4 -23.5 62.5 -12 12.2 -27.4 19.1 -46.9 20.9 -40.5 3.8 -67.5 -10.7 -93.5 -49.9 -9.9 -14.8 -21.1 -32.9 -59 -94.5 -25.5 -41.5 -53.4 -86.8 -64.9 -105.5 -5.6 -9.1 -13 -21.1 -16.5 -26.7 -7 -11.5 -10.9 -15.7 -15.8 -17.4 -9.7 -3.2 -22.5 9.8 -18.8 18.8 1.5 3.5 22.5 38.4 42 69.8 6.5 10.5 17.7 28.7 25 40.5 7.2 11.8 19.1 31.2 26.5 43 7.3 11.8 18.3 29.8 24.5 40 37.8 62.3 44 71.4 56.7 83.6 18.4 17.7 40.8 29.7 64.6 34.4 16.9 3.4 21.8 3.6 35.2 1.6z m-38 -123.6 c14 -4.8 27.7 -15.5 34.9 -27.4 1.8 -3.1 4.7 -9.5 6.4 -14.3 4 -11.5 4.3 -24.6 0.9 -36.6 -2.9 -10.2 -3.8 -11.9 -21 -39.7 -8 -12.9 -25.3 -41 -38.5 -62.5 -13.2 -21.4 -31.3 -50.7 -40.2 -65 -8.8 -14.3 -21.9 -35.4 -28.9 -47 -7.1 -11.5 -19 -30.9 -26.4 -43 -30.2 -49 -35.2 -57.7 -35.2 -61.1 0 -3.9 -2.4 -3.3 28.5 -6.9 12.1 -1.4 22.4 -2.7 22.8 -2.8 0.4 -0.1 -5.2 -5.6 -12.5 -12.2 -7.3 -6.6 -18.6 -17.1 -25 -23.4 l-11.8 -11.4 0 -5.6 c0 -3.2 2.7 -17.3 6.4 -33.6 3.5 -15.4 6.3 -28.1 6.2 -28.2 -0.4 -0.4 -33 15.8 -44.4 22.1 -6.3 3.4 -11.5 5.6 -13.4 5.6 -2.5 0 -8.5 -4 -30.2 -20.3 -26 -19.5 -27.1 -20.3 -26.9 -17.3 0.2 1.7 1.4 13.5 2.8 26.1 1.3 12.7 2.7 26.9 3.1 31.6 l0.7 8.6 -11.9 8 c-31.6 21.3 -41.9 28.4 -42.1 29.1 -0.2 0.4 11.3 4.1 25.5 8.2 39.7 11.5 38.2 10.9 38.7 13.4 1.3 5.8 10.9 45.4 13.2 54.6 1.4 5.8 2.9 10.9 3.3 11.3 0.3 0.4 2.4 -1.7 4.6 -4.6 2.1 -3 9 -12.3 15.3 -20.6 l11.4 -15.2 3.9 0.3 c4.5 0.3 1 -4.7 36.1 52.8 19.1 31.2 52.3 85.3 78 127 11 17.9 25.3 41.1 31.7 51.5 6.4 10.5 17 27.5 23.4 37.9 6.4 10.4 12.8 21 14.2 23.7 7.7 15.3 7.1 34.7 -1.3 44 -6.3 6.9 -10.2 8.4 -22.3 8.4 -9.5 0 -11.1 -0.3 -16.2 -2.8 -3.3 -1.6 -7.5 -4.8 -9.9 -7.5 -3.5 -4 -19.2 -28.7 -47.9 -75.7 -3.7 -6 -12 -19.5 -18.5 -30 -19.3 -31.1 -50.4 -81.3 -56.6 -91.6 -9.5 -15.5 -16.3 -20.2 -24.3 -16.4 -7.6 3.6 -12.1 12.5 -9.6 19.3 0.7 2 6.4 11.9 12.7 22 13.2 21.3 62 100.4 86.8 140.7 34 55.4 34.7 56.4 46 64.8 14.7 11 26.3 14.9 42 14.3 5.8 -0.2 11.3 -1.1 15.5 -2.6z m-345.2 -337.4 l7.3 -6.9 6.7 0.7 c3.7 0.4 10.5 0.9 15.2 1.3 l8.5 0.6 -6.5 -7.3 c-3.6 -4 -8.2 -9.3 -10.3 -11.8 l-3.9 -4.6 0.4 -15.3 0.3 -15.2 -10.1 10 -10.1 9.9 -5.4 0 c-3 0 -9.4 -0.5 -14.2 -1.1 -4.9 -0.6 -9.1 -0.8 -9.4 -0.6 -0.3 0.3 3.9 5.4 9.2 11.2 l9.8 10.7 -0.5 15.5 -0.6 15.5 3.2 -2.9 c1.7 -1.6 6.4 -5.9 10.4 -9.7z m335.9 -83 l5.2 -4.9 10.3 0.6 c5.7 0.4 12.1 1 14.2 1.4 l3.9 0.6 -1.6 -2.3 c-0.9 -1.3 -4.9 -6 -8.9 -10.4 l-7.3 -8 -0.5 -14.8 -0.5 -14.7 -9 8.4 -9 8.4 -5.6 0.1 c-3.1 0 -9.2 -0.5 -13.7 -1.1 -4.5 -0.6 -8.6 -0.9 -9.1 -0.7 -0.5 0.1 3 4.8 7.9 10.3 l8.9 10 0.1 15.5 0 15.4 4.8 -4.4 c2.6 -2.5 7 -6.7 9.9 -9.4z m-74.7 -140.6 c-0.5 -5.2 -1 -12.2 -1 -15.5 l0 -6 9.1 -10.9 c9.1 -10.8 9.2 -10.9 5.8 -10.3 -1.9 0.3 -9.2 0.9 -16.2 1.3 l-12.9 0.7 -9.4 -9.4 -9.5 -9.4 0.7 15.8 0.7 15.8 -2.5 2.7 c-1.4 1.5 -5.1 6 -8.2 10 l-5.7 7.3 14.8 -0.7 14.8 -0.6 10 9.5 c5.5 5.2 10.1 9.4 10.2 9.3 0.1 -0.1 -0.2 -4.4 -0.7 -9.6z"/>
 </g>
 <g fill="#e0242c">
  <path d="M738.5 921.4 c-2.2 -0.8 -5.7 -3.1 -7.7 -5.1 -12.8 -12.5 -10.3 -32.3 5.2 -40.7 4.6 -2.5 5.9 -2.8 12.5 -2.4 6.3 0.3 7.9 0.8 12.2 3.7 6.9 4.7 10.4 10.6 11 18.4 0.8 9.2 -0.9 14.1 -7 20.1 -7.5 7.4 -16.6 9.5 -26.2 6z"/>
 </g>
 <g fill="#50b14f">
  <path d="M877.2 920.4 c-15.5 -7.7 -18.9 -27.8 -6.7 -39.9 14.9 -14.9 39.7 -5.9 42.2 15.3 2.2 18.9 -18.3 33.2 -35.5 24.6z"/>
 </g>
 <g fill="#82869d">
  <path d="M309.3 999.3 c104.4 -0.2 275 -0.2 379 0 104.1 0.1 18.7 0.2 -189.8 0.2 -208.5 0 -293.6 -0.1 -189.2 -0.2z"/>
  <path d="M0.3 870 c0 -4.1 0.2 -5.8 0.4 -3.7 0.2 2 0.2 5.4 0 7.5 -0.2 2 -0.4 0.3 -0.4 -3.8z"/>
  <path d="M364.7 0.3 c75 -0.2 197.6 -0.2 272.5 0 75 0.1 13.7 0.2 -136.2 0.2 -149.9 0 -211.2 -0.1 -136.3 -0.2z"/>
 </g>
 <g fill="#fad42e">
  <path d="M808.6 921.5 c-4.8 -1.7 -11 -7.6 -13.6 -13 -2.4 -4.9 -2.7 -14.9 -0.6 -19.9 3.7 -8.8 13.8 -15.6 23.4 -15.6 9.4 0 17.1 4.7 21.7 13.2 7.2 13.3 0.8 30.4 -13.2 35.4 -4.9 1.7 -12.8 1.7 -17.7 -0.1z"/>
 </g>
 <g fill="#ffffff">
  <path d="M114 922.1 c-8.7 -2.7 -17.3 -10 -21 -17.9 -4.8 -10 -3.5 -25.1 3 -33.8 4 -5.5 12.3 -11.1 18.8 -12.6 4.9 -1.2 5.2 -1.4 5.2 -4.4 0 -6.4 3.8 -16 8.5 -21.1 8.7 -9.8 23.8 -13.4 34.9 -8.5 2.7 1.2 5 2.2 5.1 2.2 0.2 0 1.7 -2.5 3.5 -5.7 8.6 -15.2 28.2 -26.3 46.5 -26.3 13.4 0 28.3 6.1 37.8 15.4 8.6 8.5 15.7 23.1 15.7 32.3 0 3.1 0.2 3.3 3.8 3.3 9.7 0 20.4 5 27.1 12.6 15.8 18 12.3 45.8 -7.3 58.8 -10.2 6.8 -8 6.6 -98.1 6.5 -44.5 0 -82.1 -0.4 -83.5 -0.8z"/>
  <path d="M609.5 863.3 c-30.1 -3.9 -56.1 -16.2 -77.3 -36.7 -12.7 -12.2 -18.9 -21.3 -56.7 -83.6 -6.2 -10.2 -17.2 -28.2 -24.5 -40 -7.4 -11.8 -19.3 -31.2 -26.5 -43 -7.3 -11.8 -18.5 -30 -25 -40.5 -19.9 -32 -39.7 -64.8 -41.6 -69 -8.6 -18.7 16.8 -35.7 31.3 -21 1.5 1.5 5.6 7.3 9 12.9 3.4 5.5 10.8 17.5 16.4 26.6 11.5 18.7 39.4 64 64.9 105.5 60.2 97.9 66.1 106.8 77.8 118.4 18.4 18.2 36.6 26.1 60.1 26.2 23.6 0 42 -7 56 -21.5 15.8 -16.3 23.1 -35 23 -59.1 -0.1 -18.8 -2.9 -29.3 -13.1 -50 -7.9 -15.7 -9.4 -18.4 -19.8 -35 -4.5 -7.1 -18 -29 -30 -48.5 -12 -19.5 -26.8 -43.6 -33 -53.5 -6.2 -9.9 -15.3 -24.7 -20.2 -33 -5 -8.2 -14.4 -23.5 -21 -34 -6.5 -10.4 -16.8 -27.1 -22.8 -37 -10.9 -17.9 -11 -18 -11.3 -25.2 -0.4 -6 -0.1 -7.8 1.9 -11.3 6.4 -11.4 20.6 -13.3 29.5 -3.8 1.8 1.8 8.1 11.4 14.2 21.3 11.9 19.5 41.6 67.5 71.2 115 10.3 16.5 25.2 40.6 33.2 53.5 8 12.9 19.1 30.9 24.8 40 24.9 40 29.5 49.3 35 70.5 4.1 15.9 5.6 32.5 4 45.6 -2.6 22.5 -10 43.4 -21.1 59.5 -10.6 15.2 -30.8 32.7 -46.4 39.9 -18.9 8.8 -43.8 13.2 -62 10.8z"/>
  <path d="M563.1 740.5 c-8.8 -2 -17.2 -6.1 -26.6 -13.2 -11.3 -8.4 -12 -9.4 -46 -64.8 -19.4 -31.6 -69.7 -113.1 -86.8 -140.7 -13.4 -21.6 -13.7 -22.4 -13.7 -29.1 0.1 -10.3 6.5 -18.4 15.4 -19.4 10.9 -1.3 16.3 2.5 25.5 17.6 6.2 10.3 37.3 60.5 56.6 91.6 6.5 10.5 14.8 24 18.5 30 28.7 47 44.4 71.7 47.9 75.7 6.2 7 13.7 10.3 23.1 10.3 8.8 -0.1 13.6 -2.1 19.3 -8.4 3.8 -4.2 6.7 -12 6.7 -18.1 0 -4.9 -2.5 -14.1 -5.4 -19.9 -1.4 -2.7 -7.8 -13.3 -14.2 -23.7 -6.4 -10.4 -17 -27.4 -23.4 -37.9 -6.4 -10.4 -20.7 -33.6 -31.7 -51.5 -25.7 -41.7 -58.9 -95.8 -78 -127 -27.5 -45.2 -32.1 -52.4 -33.1 -52.8 -0.5 -0.1 -5.2 5.5 -10.5 12.5 -12.6 16.9 -23.6 31.5 -25.1 33.1 -1 1 -2 -1.6 -4.9 -13 -3 -11.7 -12.3 -50 -14.2 -58.5 -0.4 -1.6 -1.9 -2.6 -5.8 -3.7 -2.8 -0.9 -18.6 -5.5 -35 -10.3 -16.3 -4.8 -29.6 -9 -29.5 -9.4 0.3 -0.7 10.3 -7.6 49.6 -34.1 l10.2 -6.9 -0.5 -5.2 c-0.3 -2.9 -1.6 -15.3 -3 -27.7 -3.7 -34.1 -4.1 -41.5 -2.4 -40.5 0.8 0.5 14.5 10.7 30.5 22.7 l29.2 21.9 10.3 -5.7 c12.1 -6.6 52.2 -26.4 52.7 -26 0.1 0.2 -3.1 15.2 -7.3 33.3 -4.1 18.2 -7.5 34.1 -7.5 35.5 0 2.7 10.4 13.3 38.3 38.7 9.2 8.4 16.6 15.6 16.3 15.8 -0.2 0.3 -12.9 2 -28.1 3.8 -15.2 1.8 -27.8 3.5 -28.1 3.7 -0.4 0.5 11.6 20.7 34.8 58.3 7.4 12.1 19.3 31.5 26.4 43 7 11.6 20.1 32.7 28.9 47 8.9 14.3 27 43.6 40.2 65 13.2 21.5 30.5 49.6 38.5 62.5 17.2 27.7 18.1 29.5 21 39.7 1.9 6.3 2.3 10.2 2.3 20.8 -0.1 12 -0.3 13.7 -3.2 21.8 -1.7 4.8 -4.6 11.2 -6.4 14.3 -7.2 11.9 -20.8 22.6 -34.9 27.5 -8.3 2.8 -27.3 3.6 -36.9 1.4z"/>
  <path d="M235.5 401.8 l0.7 -18.6 -12.8 -14.2 c-7.1 -7.8 -13.1 -14.6 -13.2 -15.2 -0.2 -0.5 0.7 -0.7 2 -0.4 2.9 0.7 29 3.6 31.9 3.6 1.5 0 6.5 -4.3 15.6 -13.2 l13.4 -13.3 -0.7 18.6 -0.7 18.5 6 7 c3.3 3.8 9.2 10.4 13.2 14.8 3.9 4.3 7 8.1 6.8 8.3 -0.5 0.5 -30.4 -1.6 -33.4 -2.3 -1.8 -0.5 -4.8 1.9 -15.9 12.2 l-13.7 12.8 0.8 -18.6z"/>
  <path d="M570 319.3 l0 -17.8 -12.5 -13.9 c-6.9 -7.7 -12.3 -14.1 -12.2 -14.3 0.2 -0.1 7.2 0.7 15.7 1.7 8.5 1.1 16.6 2 18 2 1.8 0 5.9 -3.2 14.5 -11.4 l12 -11.3 0.5 17.8 0.5 17.8 4.2 4.3 c5.6 5.9 20.3 23.2 19.9 23.5 -0.2 0.2 -4.8 -0.3 -10.2 -1.1 -5.4 -0.8 -13.3 -1.8 -17.4 -2.1 l-7.5 -0.6 -12 11.5 c-6.6 6.3 -12.3 11.5 -12.7 11.6 -0.5 0 -0.8 -8 -0.8 -17.7z"/>
  <path d="M504.1 181.9 c-15.4 -14.8 -11.9 -13.6 -34.5 -11.9 -7.2 0.5 -13.2 0.8 -13.4 0.6 -0.2 -0.3 4.4 -6.4 10.3 -13.7 l10.7 -13.2 -0.6 -11.6 c-0.4 -6.4 -0.9 -15 -1.2 -19.1 l-0.6 -7.5 12.9 12.8 13 12.8 15.9 -1.1 c8.7 -0.7 17.1 -1 18.6 -0.8 2.6 0.3 2.6 0.4 -3.4 7.3 -3.3 3.9 -8.5 10.1 -11.6 13.8 l-5.5 6.8 1.7 18.6 c0.9 10.2 1.5 18.7 1.4 18.8 -0.2 0.2 -6.3 -5.5 -13.7 -12.6z"/>
 </g>
</svg>