<svg xmlns="http://www.w3.org/2000/svg" viewBox="0 0 128 128">
  <rect x="0" y="0" width="128" height="128" rx="20" fill="#1a73e8" />
  <path d="M72 40 L44 68 C38 74 38 82 44 88 C50 94 58 94 64 88 L96 56 C104 48 104 36 96 28 C88 20 76 20 68 28 L32 64 C20 76 20 96 32 108 C44 120 64 120 76 108 L100 84" fill="none" stroke="#ffffff" stroke-width="12" stroke-linecap="round" stroke-linejoin="round" />
  <circle cx="98" cy="98" r="7" fill="#34a853" />
  <circle cx="112" cy="78" r="5" fill="#fbbc04" />
  <circle cx="78" cy="112" r="5" fill="#ea4335" />
</svg>
